<svg aria-hidden="true" style="position: absolute; width: 0; height: 0; overflow: hidden;" version="1.1" xmlns="http://www.w3.org/2000/svg" xmlns:xlink="http://www.w3.org/1999/xlink">
<defs>
<symbol id="icon-how_hous" viewBox="0 0 32 32">
<path fill="#d80000" style="fill: var(--color1, #d80000)" d="M16 7.587l6.667 6v10.413h-2.667v-8h-8v8h-2.667v-10.413l6.667-6zM16 4l-13.333 12h4v10.667h8v-8h2.667v8h8v-10.667h4l-13.333-12z"></path>
</symbol>
<symbol id="icon-how_payments" viewBox="0 0 32 32">
<path fill="#d80000" style="fill: var(--color1, #d80000)" d="M25.333 18.667v-10.667c0-1.467-1.2-2.667-2.667-2.667h-18.667c-1.467 0-2.667 1.2-2.667 2.667v10.667c0 1.467 1.2 2.667 2.667 2.667h18.667c1.467 0 2.667-1.2 2.667-2.667zM22.667 18.667h-18.667v-10.667h18.667v10.667zM13.333 9.333c-2.213 0-4 1.787-4 4s1.787 4 4 4 4-1.787 4-4c0-2.213-1.787-4-4-4zM30.667 9.333v14.667c0 1.467-1.2 2.667-2.667 2.667h-22.667c0-1.333 0-1.2 0-2.667h22.667v-14.667c1.467 0 1.333 0 2.667 0z"></path>
</symbol>
<symbol id="icon-how_timer" viewBox="0 0 32 32">
<path fill="#d80000" style="fill: var(--color1, #d80000)" d="M20.093 1.347h-8v2.667h8v-2.667zM14.76 18.68h2.667v-8h-2.667v8zM25.467 9.853l1.893-1.893c-0.573-0.68-1.2-1.32-1.88-1.88l-1.893 1.893c-2.067-1.653-4.667-2.64-7.493-2.64-6.627 0-12 5.373-12 12s5.36 12 12 12c6.64 0 12-5.373 12-12 0-2.813-0.987-5.413-2.627-7.48zM16.093 26.68c-5.16 0-9.333-4.173-9.333-9.333s4.173-9.333 9.333-9.333c5.16 0 9.333 4.173 9.333 9.333s-4.173 9.333-9.333 9.333z"></path>
</symbol>
<symbol id="icon-happy" viewBox="0 0 32 32">
<path d="M16-0.034c-8.841 0-16.035 7.192-16.035 16.034s7.194 16.034 16.035 16.034 16.035-7.192 16.035-16.034-7.194-16.034-16.035-16.034zM16 30.966c-8.252 0-14.965-6.714-14.965-14.966s6.713-14.966 14.965-14.966 14.965 6.714 14.965 14.966-6.713 14.966-14.965 14.966zM10.5 16.5c1.103 0 2-0.897 2-2s-0.897-2-2-2-2 0.897-2 2 0.897 2 2 2zM10.5 13.5c0.551 0 1 0.448 1 1s-0.449 1-1 1-1-0.448-1-1 0.449-1 1-1zM21.5 16.5c1.103 0 2-0.897 2-2s-0.897-2-2-2-2 0.897-2 2 0.897 2 2 2zM21.5 13.5c0.551 0 1 0.448 1 1s-0.449 1-1 1-1-0.448-1-1 0.449-1 1-1zM22.823 22.075c-1.696 1.837-4.097 2.891-6.588 2.891-2.53 0-4.956-1.081-6.656-2.967-0.198-0.218-0.537-0.237-0.755-0.038-0.219 0.197-0.237 0.535-0.039 0.755 1.903 2.109 4.618 3.318 7.45 3.318 2.788 0 5.476-1.179 7.373-3.234 0.2-0.217 0.187-0.555-0.030-0.755s-0.555-0.188-0.755 0.030z"></path>
</symbol>
<symbol id="btn-arrows" viewBox="0 0 38 32">
<path   d="M19.024 17.699l-12.965 13.596c-0.896 0.94-2.345 0.94-3.232 0l-2.155-2.259c-0.896-0.94-0.896-2.459 0-3.389l9.19-9.637-9.19-9.637c-0.896-0.94-0.896-2.459 0-3.389l2.145-2.279c0.896-0.94 2.345-0.94 3.232 0l12.965 13.596c0.906 0.94 0.906 2.459 0.010 3.399zM37.328 14.301l-12.965-13.596c-0.896-0.94-2.345-0.94-3.232 0l-2.155 2.259c-0.896 0.94-0.896 2.459 0 3.389l9.19 9.637-9.19 9.637c-0.896 0.94-0.896 2.459 0 3.389l2.155 2.259c0.896 0.94 2.345 0.94 3.232 0l12.965-13.596c0.896-0.92 0.896-2.439 0-3.379z"></path>
</symbol>
<symbol id="icon-2196f3" viewBox="0 0 37 32">
<path d="M16.852 0.403c-0.217 0.069-0.498 0.255-0.641 0.426-0.060 0.072-1.621 2.74-3.475 5.934-9.111 15.72-12.534 21.628-12.571 21.705-0.063 0.123-0.166 0.512-0.166 0.623 0.003 0.14 0.126 0.543 0.214 0.698 0.12 0.203 0.366 0.449 0.555 0.549 0.277 0.146 0.435 0.172 1.172 0.192 1.167 0.026 31.148 0.063 31.339 0.037 0.217-0.031 0.42-0.114 0.638-0.257 0.214-0.143 0.355-0.309 0.478-0.563 0.169-0.355 0.163-0.838-0.020-1.224-0.103-0.217-14.782-25.732-15.411-26.787-0.26-0.438-0.523-0.852-0.583-0.921-0.152-0.172-0.42-0.346-0.643-0.415-0.249-0.077-0.641-0.074-0.887 0.003z"></path>
</symbol>
<symbol id="icon-arrow" viewBox="0 0 20 32">
<path fill="#e1edff" style="fill: var(--color1, #e1edff)" d="M19.625 17.699l-13.375 13.596c-0.924 0.94-2.419 0.94-3.334 0l-2.223-2.259c-0.924-0.94-0.924-2.459 0-3.389l9.481-9.637-9.481-9.637c-0.924-0.94-0.924-2.459 0-3.389l2.213-2.279c0.924-0.94 2.419-0.94 3.334 0l13.375 13.596c0.934 0.94 0.934 2.459 0.010 3.399v0z"></path>
</symbol>
<symbol id="step-1" viewBox="0 0 41 32">
<path fill="#4189dd" style="fill: var(--color2, #4189dd)" d="M29.821 11.429c0-6.312-6.675-11.429-14.91-11.429s-14.91 5.116-14.91 11.429c0 2.448 1.013 4.711 2.722 6.57-0.958 2.16-2.541 3.87-2.564 3.894-0.077 0.081-0.129 0.183-0.149 0.293s-0.007 0.223 0.038 0.326c0.044 0.103 0.118 0.19 0.211 0.252s0.203 0.094 0.315 0.094c2.622 0 4.798-0.875 6.361-1.784 2.308 1.124 5.039 1.784 7.976 1.784 8.235 0 14.91-5.116 14.91-11.429zM13.763 18.286v-1.164c-0.809-0.041-1.596-0.323-2.249-0.811-0.28-0.209-0.294-0.626-0.041-0.867l0.842-0.801c0.199-0.189 0.494-0.197 0.726-0.052 0.277 0.173 0.592 0.266 0.919 0.266h2.015c0.466 0 0.846-0.423 0.846-0.942 0-0.425-0.259-0.799-0.629-0.909l-3.226-0.964c-1.333-0.399-2.264-1.673-2.264-3.099 0-1.751 1.366-3.174 3.059-3.219v-1.151c0-0.316 0.257-0.571 0.573-0.571h1.147c0.317 0 0.573 0.256 0.573 0.571v1.164c0.809 0.041 1.596 0.322 2.249 0.811 0.28 0.209 0.294 0.626 0.041 0.867l-0.842 0.801c-0.199 0.189-0.494 0.197-0.726 0.052-0.277-0.174-0.592-0.266-0.919-0.266h-2.015c-0.466 0-0.846 0.423-0.846 0.942 0 0.425 0.259 0.799 0.629 0.909l3.226 0.964c1.333 0.399 2.264 1.673 2.264 3.099 0 1.752-1.366 3.174-3.059 3.219v1.151c0 0.316-0.257 0.571-0.573 0.571h-1.147c-0.317 0-0.573-0.256-0.573-0.571zM38.567 27.142c1.71-1.859 2.723-4.123 2.723-6.571 0-4.781-3.834-8.871-9.271-10.576 0.062 0.471 0.095 0.949 0.095 1.434 0 7.562-7.718 13.714-17.204 13.714-0.773 0-1.528-0.055-2.275-0.134 2.26 4.108 7.563 6.991 13.744 6.991 2.938 0 5.668-0.66 7.976-1.784 1.563 0.909 3.738 1.784 6.361 1.784 0.229 0 0.437-0.136 0.526-0.346 0.091-0.21 0.047-0.453-0.111-0.619-0.022-0.024-1.607-1.731-2.565-3.893z"></path>
</symbol>
<symbol id="step-2" viewBox="0 0 28 32">
<path fill="#4189dd" style="fill: var(--color2, #4189dd)" d="M13.935 16c4.398 0 7.963-3.581 7.963-8s-3.565-8-7.963-8c-4.398 0-7.963 3.581-7.963 8s3.565 8 7.963 8zM19.895 18.038l-2.974 11.962-1.991-8.5 1.991-3.5h-5.972l1.991 3.5-1.991 8.5-2.974-11.962c-4.436 0.212-7.976 3.856-7.976 8.362v2.6c0 1.656 1.338 3 2.986 3h21.899c1.649 0 2.986-1.344 2.986-3v-2.6c0-4.506-3.54-8.15-7.976-8.362z"></path>
</symbol>
<symbol id="step-3" viewBox="0 0 24 32">
<path fill="#4189dd" style="fill: var(--color2, #4189dd)" d="M23.816 6.562l-6.185-6.125c-0.284-0.281-0.67-0.438-1.074-0.438h-0.385v8h8.086v-0.381c0-0.394-0.158-0.775-0.442-1.056zM14.151 8.5v-8.5h-12.634c-0.84 0-1.516 0.669-1.516 1.5v29c0 0.831 0.676 1.5 1.516 1.5h21.226c0.84 0 1.516-0.669 1.516-1.5v-20.5h-8.591c-0.834 0-1.516-0.675-1.516-1.5zM4.043 4.5c0-0.276 0.226-0.5 0.505-0.5h5.054c0.279 0 0.505 0.224 0.505 0.5v1c0 0.276-0.226 0.5-0.505 0.5h-5.054c-0.279 0-0.505-0.224-0.505-0.5v-1zM4.043 9.5v-1c0-0.276 0.226-0.5 0.505-0.5h5.054c0.279 0 0.505 0.224 0.505 0.5v1c0 0.276-0.226 0.5-0.505 0.5h-5.054c-0.279 0-0.505-0.224-0.505-0.5zM13.14 25.993v1.507c0 0.276-0.226 0.5-0.505 0.5h-1.011c-0.279 0-0.505-0.224-0.505-0.5v-1.518c-0.713-0.036-1.407-0.283-1.982-0.709-0.246-0.183-0.259-0.548-0.036-0.759l0.742-0.701c0.175-0.165 0.435-0.172 0.64-0.046 0.244 0.151 0.522 0.233 0.81 0.233h1.776c0.411 0 0.745-0.37 0.745-0.824 0-0.372-0.228-0.699-0.554-0.796l-2.843-0.844c-1.174-0.349-1.995-1.464-1.995-2.712 0-1.532 1.203-2.777 2.696-2.817v-1.507c0-0.276 0.226-0.5 0.505-0.5h1.011c0.279 0 0.505 0.224 0.505 0.5v1.518c0.713 0.036 1.407 0.282 1.982 0.709 0.246 0.183 0.259 0.548 0.036 0.759l-0.742 0.701c-0.175 0.165-0.435 0.172-0.64 0.046-0.245-0.152-0.522-0.233-0.81-0.233h-1.776c-0.411 0-0.745 0.37-0.745 0.824 0 0.372 0.228 0.699 0.554 0.796l2.843 0.844c1.174 0.349 1.995 1.464 1.995 2.712 0 1.533-1.203 2.777-2.696 2.817z"></path>
</symbol>
<symbol id="step-4" viewBox="0 0 18 32">
<path fill="#4189dd" style="fill: var(--color2, #4189dd)" d="M13.122 14.588l-6.776-1.975c-0.784-0.225-1.33-0.956-1.33-1.769 0-1.019 0.828-1.844 1.851-1.844h4.159c0.765 0 1.518 0.231 2.146 0.656 0.383 0.256 0.897 0.194 1.223-0.125l2.183-2.125c0.445-0.431 0.383-1.15-0.113-1.531-1.537-1.2-3.457-1.869-5.427-1.875v-3c0-0.55-0.452-1-1.004-1h-2.008c-0.552 0-1.004 0.45-1.004 1v3h-0.157c-3.996 0-7.209 3.419-6.838 7.475 0.264 2.881 2.472 5.225 5.257 6.038l6.431 1.875c0.784 0.231 1.33 0.956 1.33 1.769 0 1.019-0.828 1.844-1.851 1.844h-4.159c-0.765 0-1.518-0.231-2.146-0.656-0.383-0.256-0.897-0.194-1.223 0.125l-2.183 2.125c-0.445 0.431-0.383 1.15 0.113 1.531 1.537 1.2 3.457 1.869 5.427 1.875v3c0 0.55 0.452 1 1.004 1h2.008c0.552 0 1.004-0.45 1.004-1v-3.012c2.924-0.056 5.665-1.788 6.631-4.544 1.349-3.85-0.916-7.8-4.549-8.856z"></path>
</symbol>
<symbol id="icon-name" viewBox="0 0 27 32">
<path fill="#4189dd" style="fill: var(--color1, #4189dd)" d="M13.333 16c4.208 0 7.619-3.581 7.619-8s-3.411-8-7.619-8c-4.208 0-7.619 3.581-7.619 8s3.411 8 7.619 8zM18.667 18h-0.994c-1.321 0.637-2.792 1-4.339 1s-3.012-0.363-4.339-1h-0.994c-4.417 0-8 3.763-8 8.4v2.6c0 1.656 1.28 3 2.857 3h20.952c1.577 0 2.857-1.344 2.857-3v-2.6c0-4.637-3.583-8.4-8-8.4z"></path>
</symbol>
<symbol id="icon-phone" viewBox="0 0 32 32">
<path fill="#4189dd" style="fill: var(--color1, #4189dd)" d="M31.087 22.612l-7-3c-0.299-0.127-0.631-0.154-0.947-0.077s-0.597 0.256-0.803 0.508l-3.1 3.787c-4.865-2.294-8.781-6.209-11.075-11.075l3.788-3.1c0.252-0.205 0.431-0.487 0.509-0.803s0.051-0.648-0.077-0.947l-3-7c-0.141-0.322-0.389-0.585-0.703-0.744s-0.673-0.203-1.016-0.125l-6.5 1.5c-0.331 0.076-0.625 0.262-0.837 0.528s-0.326 0.595-0.326 0.934c0 16.032 12.994 29.001 29.001 29.001 0.339 0 0.669-0.115 0.934-0.326s0.452-0.506 0.528-0.837l1.5-6.5c0.077-0.344 0.032-0.705-0.127-1.020s-0.424-0.564-0.748-0.705z"></path>
</symbol>
<symbol id="icon-mail" viewBox="0 0 43 32">
<path fill="#4189dd" style="fill: var(--color1, #4189dd)" d="M41.858 10.567c0.325-0.258 0.808-0.017 0.808 0.392v17.042c0 2.208-1.792 4-4 4h-34.667c-2.208 0-4-1.792-4-4v-17.033c0-0.417 0.475-0.65 0.808-0.392 1.867 1.45 4.342 3.292 12.842 9.467 1.758 1.283 4.725 3.983 7.683 3.967 2.975 0.025 6-2.733 7.692-3.967 8.5-6.175 10.967-8.025 12.833-9.475zM21.333 21.333c1.933 0.033 4.717-2.433 6.117-3.45 11.058-8.025 11.9-8.725 14.45-10.725 0.483-0.375 0.767-0.958 0.767-1.575v-1.583c0-2.208-1.792-4-4-4h-34.667c-2.208 0-4 1.792-4 4v1.583c0 0.617 0.283 1.192 0.767 1.575 2.55 1.992 3.392 2.7 14.45 10.725 1.4 1.017 4.183 3.483 6.117 3.45z"></path>
</symbol>
<symbol id="icon-adress" viewBox="0 0 24 32">
<path fill="#4189dd" style="fill: var(--color1, #4189dd)" d="M10.767 31.354c-9.081-13.165-10.767-14.516-10.767-19.354 0-6.627 5.373-12 12-12s12 5.373 12 12c0 4.838-1.686 6.189-10.767 19.354-0.596 0.861-1.871 0.861-2.466 0zM12 17c2.761 0 5-2.239 5-5s-2.239-5-5-5c-2.761 0-5 2.239-5 5s2.239 5 5 5z"></path>
</symbol>
<symbol id="icon_close" viewBox="0 0 32 32">
<path  d="M8.533 25.333l-1.867-1.867 7.467-7.467-7.467-7.467 1.867-1.867 7.467 7.467 7.467-7.467 1.867 1.867-7.467 7.467 7.467 7.467-1.867 1.867-7.467-7.467-7.467 7.467z"></path>
</symbol>
</defs>
</svg>
