<svg aria-hidden="true" style="position: absolute; width: 0; height: 0; overflow: hidden;" version="1.1" xmlns="http://www.w3.org/2000/svg" xmlns:xlink="http://www.w3.org/1999/xlink">
<defs>
<symbol id="icon-name" viewBox="0 0 27 32">
<path fill="#4189dd" style="fill: var(--color1, #4189dd)" d="M13.333 16c4.208 0 7.619-3.581 7.619-8s-3.411-8-7.619-8c-4.208 0-7.619 3.581-7.619 8s3.411 8 7.619 8zM18.667 18h-0.994c-1.321 0.637-2.792 1-4.339 1s-3.012-0.363-4.339-1h-0.994c-4.417 0-8 3.763-8 8.4v2.6c0 1.656 1.28 3 2.857 3h20.952c1.577 0 2.857-1.344 2.857-3v-2.6c0-4.637-3.583-8.4-8-8.4z"></path>
</symbol>
<symbol id="icon-phone" viewBox="0 0 32 32">
<path fill="#4189dd" style="fill: var(--color1, #4189dd)" d="M31.087 22.612l-7-3c-0.299-0.127-0.631-0.154-0.947-0.077s-0.597 0.256-0.803 0.508l-3.1 3.787c-4.865-2.294-8.781-6.209-11.075-11.075l3.788-3.1c0.252-0.205 0.431-0.487 0.509-0.803s0.051-0.648-0.077-0.947l-3-7c-0.141-0.322-0.389-0.585-0.703-0.744s-0.673-0.203-1.016-0.125l-6.5 1.5c-0.331 0.076-0.625 0.262-0.837 0.528s-0.326 0.595-0.326 0.934c0 16.032 12.994 29.001 29.001 29.001 0.339 0 0.669-0.115 0.934-0.326s0.452-0.506 0.528-0.837l1.5-6.5c0.077-0.344 0.032-0.705-0.127-1.020s-0.424-0.564-0.748-0.705z"></path>
</symbol>
<symbol id="icon-mail" viewBox="0 0 43 32">
<path fill="#4189dd" style="fill: var(--color1, #4189dd)" d="M41.858 10.567c0.325-0.258 0.808-0.017 0.808 0.392v17.042c0 2.208-1.792 4-4 4h-34.667c-2.208 0-4-1.792-4-4v-17.033c0-0.417 0.475-0.65 0.808-0.392 1.867 1.45 4.342 3.292 12.842 9.467 1.758 1.283 4.725 3.983 7.683 3.967 2.975 0.025 6-2.733 7.692-3.967 8.5-6.175 10.967-8.025 12.833-9.475zM21.333 21.333c1.933 0.033 4.717-2.433 6.117-3.45 11.058-8.025 11.9-8.725 14.45-10.725 0.483-0.375 0.767-0.958 0.767-1.575v-1.583c0-2.208-1.792-4-4-4h-34.667c-2.208 0-4 1.792-4 4v1.583c0 0.617 0.283 1.192 0.767 1.575 2.55 1.992 3.392 2.7 14.45 10.725 1.4 1.017 4.183 3.483 6.117 3.45z"></path>
</symbol>
<symbol id="icon-adress" viewBox="0 0 24 32">
<path fill="#4189dd" style="fill: var(--color1, #4189dd)" d="M10.767 31.354c-9.081-13.165-10.767-14.516-10.767-19.354 0-6.627 5.373-12 12-12s12 5.373 12 12c0 4.838-1.686 6.189-10.767 19.354-0.596 0.861-1.871 0.861-2.466 0zM12 17c2.761 0 5-2.239 5-5s-2.239-5-5-5c-2.761 0-5 2.239-5 5s2.239 5 5 5z"></path>
</symbol>
</defs>
</svg>
